<svg xmlns="http://www.w3.org/2000/svg" xmlns:xlink="http://www.w3.org/1999/xlink" preserveAspectRatio="xMidYMid" width="31" height="31" viewBox="0 0 31 31">
  <defs>
    <style>
      .cls-1 {
        fill: #fff;
        fill-rule: evenodd;
      }
    </style>
  </defs>
  <path d="M31.000,5.166 C31.000,2.452 28.550,-0.000 25.833,-0.000 L5.167,-0.000 C2.450,-0.000 -0.000,2.452 -0.000,5.166 L-0.000,25.833 C-0.000,28.548 2.450,31.000 5.167,31.000 L15.500,31.000 L15.500,19.289 L11.711,19.289 L11.711,14.123 L15.500,14.123 L15.500,12.109 C15.500,8.638 18.107,5.511 21.312,5.511 L25.488,5.511 L25.488,10.678 L21.312,10.678 C20.855,10.678 20.322,11.233 20.322,12.064 L20.322,14.123 L25.488,14.123 L25.488,19.289 L20.322,19.289 L20.322,31.000 L25.833,31.000 C28.550,31.000 31.000,28.548 31.000,25.833 L31.000,5.166 Z" class="cls-1"/>
</svg>
