<svg xmlns="http://www.w3.org/2000/svg" xmlns:xlink="http://www.w3.org/1999/xlink" preserveAspectRatio="xMidYMid" width="45" height="45" viewBox="0 0 45 45">
  <defs>
    <style>
      .cls-1 {
        fill: #fff;
        fill-rule: evenodd;
      }
    </style>
  </defs>
  <path d="M15.668,23.207 C12.451,22.940 9.930,22.381 8.382,21.961 C7.481,21.717 6.541,21.902 5.801,22.469 C5.054,23.041 4.626,23.911 4.626,24.857 C4.626,26.171 5.461,27.319 6.704,27.713 C8.447,28.268 11.329,29.002 15.165,29.351 C15.254,29.361 15.345,29.364 15.435,29.364 C16.192,29.364 16.931,29.077 17.498,28.560 C18.136,27.974 18.503,27.141 18.503,26.276 C18.503,24.687 17.257,23.338 15.668,23.207 ZM16.459,27.419 C16.138,27.711 15.729,27.849 15.304,27.812 C11.605,27.475 8.838,26.772 7.172,26.242 C6.572,26.050 6.169,25.495 6.169,24.859 C6.169,24.398 6.377,23.976 6.740,23.698 C7.094,23.424 7.545,23.335 7.981,23.454 C10.322,24.092 12.868,24.526 15.543,24.749 C16.340,24.814 16.963,25.486 16.963,26.277 C16.963,26.710 16.779,27.126 16.459,27.419 ZM35.465,13.082 C35.435,10.880 33.641,8.705 30.526,7.093 C29.652,6.231 23.123,-0.000 16.961,-0.000 C12.357,-0.000 10.419,0.856 7.774,2.264 C3.929,4.313 1.542,8.480 1.548,13.034 L-0.000,24.727 C-0.000,29.926 8.128,34.000 18.503,34.000 C28.879,34.000 37.007,29.926 37.001,24.625 L35.465,13.082 ZM8.499,3.629 C10.997,2.298 12.621,1.545 16.961,1.545 C22.795,1.545 29.454,8.205 29.521,8.271 C29.579,8.330 29.645,8.379 29.719,8.416 C31.346,9.242 32.564,10.232 33.260,11.249 C32.742,11.005 32.174,10.820 31.611,10.820 C31.158,10.820 30.561,10.965 29.909,11.195 C28.316,9.441 24.639,7.727 18.503,7.727 C10.087,7.727 6.168,10.954 6.168,13.136 C6.168,15.318 10.087,18.545 18.503,18.545 C20.056,18.545 21.489,18.389 22.853,18.162 C22.095,19.253 20.878,20.091 18.503,20.091 C10.146,20.091 3.084,16.906 3.084,13.136 C3.084,9.052 5.159,5.409 8.499,3.629 ZM28.364,11.853 C26.992,12.526 25.629,13.404 24.898,14.136 C24.440,14.595 24.178,15.267 23.877,16.045 C23.826,16.176 23.771,16.311 23.718,16.445 C22.142,16.800 20.401,17.000 18.503,17.000 C11.028,17.000 7.710,14.200 7.710,13.136 C7.710,12.073 11.028,9.273 18.503,9.273 C23.897,9.273 26.973,10.677 28.364,11.853 ZM18.503,32.454 C9.310,32.454 1.542,28.915 1.536,24.829 L2.675,16.224 C5.095,19.418 11.181,21.636 18.503,21.636 C23.362,21.636 24.583,18.487 25.314,16.606 C25.542,16.015 25.760,15.458 25.988,15.229 C27.163,14.050 30.474,12.363 31.610,12.363 C32.389,12.363 33.448,13.104 33.968,13.530 L35.465,24.727 C35.465,28.915 27.696,32.454 18.503,32.454 Z" transform="translate(4 5.5)" class="cls-1"/>
</svg>
