<svg xmlns="http://www.w3.org/2000/svg" xmlns:xlink="http://www.w3.org/1999/xlink" preserveAspectRatio="xMidYMid" width="45" height="45" viewBox="0 0 45 45">
  <defs>
    <style>
      .cls-1 {
        fill: #fff;
        fill-rule: evenodd;
      }
    </style>
  </defs>
  <path d="M29.021,29.021 C25.810,32.232 21.541,34.000 17.000,34.000 C12.459,34.000 8.190,32.232 4.979,29.021 C1.768,25.810 0.000,21.541 0.000,17.000 C0.000,12.459 1.768,8.190 4.979,4.979 C8.190,1.768 12.459,0.000 17.000,0.000 C21.541,0.000 25.810,1.768 29.021,4.979 C32.232,8.190 34.000,12.459 34.000,17.000 C34.000,21.541 32.232,25.810 29.021,29.021 ZM17.000,1.355 C8.373,1.355 1.355,8.373 1.355,17.000 C1.355,25.627 8.373,32.645 17.000,32.645 C25.627,32.645 32.645,25.627 32.645,17.000 C32.645,8.373 25.627,1.355 17.000,1.355 ZM17.000,31.330 C9.098,31.330 2.670,24.902 2.670,17.000 C2.670,9.098 9.098,2.670 17.000,2.670 C24.902,2.670 31.330,9.098 31.330,17.000 C31.330,24.902 24.902,31.330 17.000,31.330 ZM28.559,11.108 L26.606,12.236 C26.499,12.298 26.383,12.327 26.268,12.327 C26.034,12.327 25.806,12.205 25.681,11.988 C25.494,11.664 25.605,11.250 25.929,11.063 L27.880,9.937 C26.888,8.414 25.586,7.112 24.063,6.120 L22.937,8.071 C22.812,8.288 22.584,8.410 22.350,8.410 C22.235,8.410 22.119,8.381 22.012,8.319 C21.688,8.132 21.577,7.718 21.764,7.394 L22.892,5.441 C21.312,4.632 19.546,4.138 17.677,4.042 L17.677,6.299 C17.677,6.673 17.374,6.976 17.000,6.976 C16.626,6.976 16.323,6.673 16.323,6.299 L16.323,4.042 C14.454,4.138 12.688,4.632 11.108,5.441 L12.236,7.394 C12.423,7.718 12.312,8.132 11.988,8.319 C11.881,8.381 11.765,8.410 11.650,8.410 C11.416,8.410 11.188,8.288 11.063,8.071 L9.937,6.120 C8.414,7.112 7.112,8.414 6.120,9.937 L8.071,11.063 C8.395,11.250 8.506,11.664 8.319,11.988 C8.194,12.205 7.966,12.327 7.732,12.327 C7.617,12.327 7.501,12.298 7.394,12.236 L5.441,11.108 C4.632,12.688 4.138,14.454 4.042,16.323 L6.299,16.323 C6.673,16.323 6.976,16.626 6.976,17.000 C6.976,17.374 6.673,17.677 6.299,17.677 L4.042,17.677 C4.138,19.546 4.632,21.312 5.441,22.892 L7.394,21.764 C7.718,21.577 8.132,21.688 8.319,22.012 C8.506,22.336 8.395,22.750 8.071,22.937 L6.120,24.063 C7.112,25.586 8.414,26.888 9.937,27.880 L11.063,25.929 C11.250,25.605 11.664,25.494 11.988,25.681 C12.312,25.868 12.423,26.282 12.236,26.606 L11.108,28.559 C12.688,29.368 14.454,29.862 16.323,29.958 L16.323,27.701 C16.323,27.327 16.626,27.024 17.000,27.024 C17.374,27.024 17.677,27.327 17.677,27.701 L17.677,29.958 C19.546,29.862 21.312,29.368 22.892,28.559 L21.764,26.606 C21.577,26.282 21.688,25.868 22.012,25.681 C22.336,25.494 22.750,25.605 22.937,25.929 L24.063,27.880 C25.586,26.888 26.888,25.586 27.880,24.063 L25.929,22.937 C25.605,22.750 25.494,22.336 25.681,22.012 C25.868,21.688 26.282,21.577 26.606,21.764 L28.559,22.892 C29.368,21.312 29.862,19.546 29.958,17.677 L27.701,17.677 C27.327,17.677 27.024,17.374 27.024,17.000 C27.024,16.626 27.327,16.323 27.701,16.323 L29.958,16.323 C29.862,14.454 29.368,12.688 28.559,11.108 ZM17.000,19.004 C16.878,19.004 16.759,18.992 16.644,18.971 L15.569,20.833 C15.444,21.050 15.216,21.171 14.982,21.171 C14.867,21.171 14.751,21.142 14.644,21.080 C14.320,20.893 14.209,20.479 14.396,20.155 L15.471,18.293 C15.175,17.944 14.996,17.493 14.996,17.000 C14.996,16.133 15.550,15.393 16.323,15.114 L16.323,10.769 C16.323,10.395 16.626,10.092 17.000,10.092 C17.374,10.092 17.677,10.395 17.677,10.769 L17.677,15.114 C18.450,15.393 19.004,16.133 19.004,17.000 C19.004,18.105 18.105,19.004 17.000,19.004 ZM17.000,16.351 C16.642,16.351 16.351,16.642 16.351,17.000 C16.351,17.358 16.642,17.649 17.000,17.649 C17.358,17.649 17.649,17.358 17.649,17.000 C17.649,16.642 17.358,16.351 17.000,16.351 ZM17.000,9.482 C16.626,9.482 16.323,9.179 16.323,8.805 L16.323,8.534 C16.323,8.160 16.626,7.857 17.000,7.857 C17.374,7.857 17.677,8.160 17.677,8.534 L17.677,8.805 C17.677,9.179 17.374,9.482 17.000,9.482 Z" transform="translate(5.5 5.5)" class="cls-1"/>
</svg>
