<svg xmlns="http://www.w3.org/2000/svg" xmlns:xlink="http://www.w3.org/1999/xlink" preserveAspectRatio="xMidYMid" width="45" height="45" viewBox="0 0 45 45">
  <defs>
    <style>
      .cls-1 {
        fill: #fff;
        fill-rule: evenodd;
      }
    </style>
  </defs>
  <path d="M36.990,21.783 C36.906,21.783 36.821,21.780 36.736,21.776 C36.072,23.731 35.041,25.560 33.681,27.155 C31.179,30.092 27.711,32.078 23.918,32.746 C23.867,32.755 23.816,32.759 23.767,32.759 C23.359,32.759 22.997,32.469 22.924,32.056 C22.841,31.593 23.152,31.151 23.618,31.069 C30.732,29.816 35.895,23.689 35.895,16.500 C35.895,8.345 29.219,1.709 21.011,1.703 C18.762,1.706 16.934,3.513 16.934,5.735 C16.934,7.427 18.321,8.804 20.024,8.804 L20.025,8.804 C20.682,8.804 21.279,8.608 21.705,8.252 C21.987,8.015 22.325,7.593 22.325,6.927 C22.325,6.155 22.049,5.691 21.505,5.545 C21.047,5.423 20.776,4.956 20.899,4.501 C21.022,4.047 21.493,3.778 21.950,3.901 C23.258,4.250 24.039,5.382 24.039,6.927 C24.039,7.957 23.602,8.890 22.809,9.553 C22.075,10.169 21.086,10.507 20.025,10.507 L20.024,10.507 C17.375,10.507 15.220,8.366 15.220,5.735 C15.220,4.524 15.602,3.400 16.252,2.474 C10.360,4.447 6.105,9.989 6.105,16.500 C6.105,23.679 11.260,29.805 18.362,31.065 C18.828,31.148 19.139,31.590 19.055,32.053 C18.972,32.517 18.527,32.824 18.061,32.742 C14.272,32.069 10.810,30.083 8.312,27.147 C6.956,25.554 5.927,23.728 5.264,21.775 C5.179,21.780 5.094,21.782 5.010,21.782 C2.247,21.782 -0.000,19.413 -0.000,16.500 C-0.000,13.587 2.247,11.216 5.010,11.216 C5.094,11.216 5.178,11.219 5.261,11.223 C7.482,4.705 13.698,-0.000 21.000,-0.000 C21.004,-0.000 21.007,-0.000 21.011,-0.000 C21.013,-0.000 21.015,-0.000 21.016,-0.000 C28.311,0.007 34.520,4.710 36.738,11.223 C36.822,11.219 36.906,11.216 36.990,11.216 C39.753,11.216 42.000,13.587 42.000,16.500 C42.000,19.413 39.753,21.783 36.990,21.783 ZM4.784,12.929 C3.072,13.055 1.714,14.608 1.714,16.500 C1.714,18.391 3.072,19.945 4.785,20.070 C4.525,18.905 4.391,17.708 4.391,16.500 C4.391,15.274 4.527,14.079 4.784,12.929 ZM37.216,12.929 C37.473,14.079 37.609,15.274 37.609,16.500 C37.609,17.708 37.475,18.905 37.215,20.070 C38.927,19.945 40.286,18.391 40.286,16.500 C40.286,14.608 38.928,13.055 37.216,12.929 ZM17.529,14.979 C17.111,14.467 16.492,14.174 15.830,14.174 C15.168,14.174 14.548,14.468 14.130,14.980 C13.961,15.187 13.714,15.295 13.464,15.295 C13.275,15.295 13.084,15.233 12.925,15.105 C12.557,14.809 12.501,14.272 12.799,13.907 C13.544,12.994 14.649,12.471 15.830,12.471 C17.012,12.471 18.116,12.994 18.861,13.907 C19.159,14.272 19.103,14.809 18.735,15.105 C18.367,15.401 17.827,15.345 17.529,14.979 ZM24.470,14.979 C24.173,15.345 23.633,15.401 23.265,15.105 C22.897,14.809 22.840,14.272 23.139,13.907 C23.884,12.994 24.988,12.471 26.170,12.471 C27.351,12.471 28.456,12.994 29.201,13.907 C29.499,14.272 29.442,14.809 29.075,15.105 C28.916,15.233 28.725,15.295 28.536,15.295 C28.286,15.295 28.039,15.187 27.869,14.979 C27.451,14.467 26.832,14.174 26.170,14.174 C25.508,14.174 24.888,14.467 24.470,14.979 ZM21.000,26.783 C17.348,26.783 14.377,23.832 14.377,20.204 C14.377,19.734 14.761,19.352 15.234,19.352 L26.766,19.352 C27.239,19.352 27.623,19.734 27.623,20.204 C27.623,23.832 24.652,26.783 21.000,26.783 ZM21.000,25.080 C21.585,25.080 22.147,24.977 22.668,24.789 C22.298,24.257 21.681,23.919 21.000,23.919 C20.319,23.919 19.702,24.257 19.332,24.789 C19.853,24.977 20.414,25.080 21.000,25.080 ZM16.166,21.055 C16.370,22.204 16.981,23.214 17.844,23.936 C18.517,22.887 19.695,22.216 21.000,22.216 C22.306,22.216 23.484,22.887 24.156,23.936 C25.019,23.214 25.629,22.204 25.834,21.055 L16.166,21.055 ZM21.001,31.296 L21.021,31.297 C21.494,31.303 21.873,31.689 21.867,32.159 C21.861,32.626 21.479,33.000 21.010,33.000 C21.007,33.000 21.003,33.000 20.999,33.000 L20.979,33.000 C20.506,32.993 20.127,32.608 20.133,32.138 C20.139,31.667 20.524,31.290 21.001,31.296 Z" transform="translate(1.5 6)" class="cls-1"/>
</svg>
