<svg xmlns="http://www.w3.org/2000/svg" xmlns:xlink="http://www.w3.org/1999/xlink" preserveAspectRatio="xMidYMid" width="45" height="45" viewBox="0 0 45 45">
  <defs>
    <style>
      .cls-1 {
        fill: #fff;
        fill-rule: evenodd;
      }
    </style>
  </defs>
  <path d="M19.500,39.000 C10.047,39.000 -0.000,36.950 -0.000,33.150 C-0.000,32.095 0.750,31.139 2.227,30.308 C3.698,29.537 5.267,28.969 6.890,28.618 C7.225,28.535 7.575,28.457 7.930,28.383 L13.875,11.408 C14.642,9.219 16.009,7.291 17.820,5.843 L24.944,0.143 C25.150,-0.022 25.437,-0.046 25.667,0.083 C25.898,0.213 26.028,0.469 25.995,0.731 L25.046,8.349 C24.900,9.476 24.933,10.620 25.144,11.737 C25.256,12.326 25.415,12.906 25.617,13.470 L30.997,28.369 C31.380,28.447 31.756,28.528 32.114,28.620 C33.736,28.970 35.303,29.539 36.773,30.310 C38.250,31.139 39.000,32.095 39.000,33.150 C39.000,36.950 28.953,39.000 19.500,39.000 ZM24.394,13.909 C24.287,13.611 24.193,13.309 24.109,13.006 L21.856,14.808 L21.044,13.793 L23.808,11.583 C23.778,11.391 23.745,11.199 23.725,11.007 L20.043,10.393 L20.257,9.111 L23.666,9.679 C23.665,9.179 23.695,8.680 23.756,8.184 L24.505,2.157 L18.632,6.859 C17.011,8.154 15.788,9.880 15.101,11.838 L9.087,29.018 C12.524,29.627 16.009,29.922 19.500,29.900 C22.969,29.920 26.433,29.629 29.850,29.032 L24.394,13.909 ZM30.301,30.275 C26.737,30.913 23.121,31.222 19.500,31.200 C15.862,31.225 12.230,30.912 8.650,30.263 L8.024,32.059 C11.802,32.814 15.647,33.180 19.500,33.150 C23.344,33.180 27.181,32.815 30.951,32.061 L30.301,30.275 ZM36.133,31.442 C34.765,30.732 33.308,30.208 31.802,29.882 L31.519,29.812 L32.422,32.311 C32.485,32.485 32.471,32.678 32.383,32.841 C32.295,33.004 32.142,33.122 31.962,33.165 C27.869,34.059 23.689,34.489 19.500,34.450 C15.305,34.489 11.119,34.057 7.020,33.163 C6.841,33.120 6.688,33.004 6.600,32.843 C6.512,32.682 6.496,32.492 6.556,32.318 L7.426,29.826 L7.203,29.881 C5.696,30.207 4.238,30.731 2.869,31.440 C1.856,32.008 1.300,32.616 1.300,33.150 C1.300,35.050 8.224,37.700 19.500,37.700 C30.776,37.700 37.700,35.050 37.700,33.150 C37.700,32.616 37.144,32.008 36.133,31.442 ZM17.796,26.870 C17.577,26.985 17.312,26.966 17.112,26.821 C16.912,26.675 16.811,26.428 16.853,26.185 L17.178,24.285 L15.798,22.940 C15.621,22.767 15.557,22.509 15.634,22.274 C15.710,22.038 15.914,21.867 16.158,21.831 L18.066,21.553 L18.919,19.825 C19.040,19.619 19.262,19.492 19.502,19.492 C19.741,19.492 19.963,19.619 20.085,19.825 L20.937,21.553 L22.845,21.830 C23.090,21.866 23.293,22.037 23.370,22.273 C23.446,22.508 23.382,22.767 23.205,22.939 L21.824,24.284 L22.149,26.184 C22.191,26.428 22.091,26.674 21.891,26.820 C21.691,26.965 21.425,26.984 21.206,26.869 L19.500,25.972 L17.796,26.870 ZM20.644,25.109 L20.483,24.170 C20.447,23.960 20.517,23.744 20.670,23.595 L21.353,22.927 L20.410,22.790 C20.199,22.759 20.016,22.626 19.921,22.434 L19.500,21.580 L19.080,22.438 C18.986,22.630 18.802,22.763 18.591,22.794 L17.648,22.931 L18.330,23.595 C18.482,23.744 18.551,23.958 18.516,24.167 L18.355,25.106 L19.195,24.666 C19.384,24.566 19.610,24.566 19.799,24.666 L20.644,25.109 Z" transform="translate(3 3)" class="cls-1"/>
</svg>
