<svg xmlns="http://www.w3.org/2000/svg" xmlns:xlink="http://www.w3.org/1999/xlink" preserveAspectRatio="xMidYMid" width="45" height="45" viewBox="0 0 45 45">
  <defs>
    <style>
      .cls-1 {
        fill: #fff;
        fill-rule: evenodd;
      }
    </style>
  </defs>
  <path d="M8.932,25.889 C8.460,25.889 8.076,25.508 8.073,25.035 L8.073,24.990 C8.073,24.515 8.458,24.130 8.932,24.130 C9.407,24.130 9.791,24.515 9.791,24.990 L9.792,25.024 C9.795,25.499 9.412,25.886 8.938,25.889 C8.936,25.889 8.934,25.889 8.932,25.889 ZM10.312,27.818 C10.935,29.445 12.102,30.842 13.595,31.751 C14.001,31.998 14.130,32.527 13.883,32.932 C13.721,33.198 13.438,33.345 13.148,33.345 C12.996,33.345 12.842,33.304 12.702,33.220 C10.885,32.114 9.466,30.414 8.707,28.433 C8.537,27.990 8.759,27.493 9.202,27.323 C9.645,27.153 10.142,27.375 10.312,27.818 ZM34.209,19.916 C34.369,20.076 34.461,20.297 34.461,20.523 C34.461,20.749 34.369,20.971 34.209,21.131 C34.049,21.291 33.827,21.383 33.601,21.383 C33.376,21.383 33.154,21.291 32.994,21.131 C32.834,20.971 32.742,20.749 32.742,20.523 C32.742,20.297 32.834,20.076 32.994,19.916 C33.154,19.756 33.376,19.664 33.601,19.664 C33.827,19.664 34.049,19.756 34.209,19.916 ZM41.808,29.380 L40.021,29.603 C39.242,31.778 37.925,33.713 36.180,35.248 L36.180,39.602 C36.180,40.976 35.062,42.094 33.688,42.094 L28.703,42.094 C27.329,42.094 26.211,40.976 26.211,39.602 L26.211,38.651 L20.710,38.651 L20.710,39.602 C20.710,40.976 19.592,42.094 18.218,42.094 L13.233,42.094 C11.859,42.094 10.742,40.976 10.742,39.602 L10.742,36.748 C6.594,34.291 4.039,29.832 4.039,24.990 C4.039,24.440 4.073,23.897 4.136,23.364 L3.824,23.364 C1.716,23.364 -0.000,21.648 -0.000,19.539 C-0.000,17.431 1.716,15.715 3.824,15.715 C4.299,15.715 4.684,16.100 4.684,16.575 C4.684,17.049 4.299,17.434 3.824,17.434 C2.663,17.434 1.719,18.379 1.719,19.539 C1.719,20.700 2.663,21.645 3.824,21.645 L4.454,21.645 C5.950,15.724 11.321,11.328 17.700,11.328 L18.777,11.328 C19.252,11.328 19.637,11.713 19.637,12.188 C19.637,12.662 19.252,13.047 18.777,13.047 L17.700,13.047 C11.115,13.047 5.758,18.404 5.758,24.990 C5.758,29.374 8.154,33.398 12.011,35.492 C12.288,35.643 12.460,35.933 12.460,36.248 L12.460,39.602 C12.460,40.028 12.807,40.375 13.233,40.375 L18.218,40.375 C18.645,40.375 18.992,40.028 18.992,39.602 L18.992,37.791 C18.992,37.317 19.376,36.932 19.851,36.932 L27.071,36.932 C27.546,36.932 27.930,37.317 27.930,37.791 L27.930,39.602 C27.930,40.028 28.277,40.375 28.703,40.375 L33.688,40.375 C34.115,40.375 34.462,40.028 34.462,39.602 L34.462,34.852 C34.462,34.596 34.576,34.353 34.773,34.190 C36.560,32.709 37.869,30.762 38.558,28.561 C38.659,28.240 38.938,28.007 39.272,27.965 L41.594,27.674 C41.986,27.625 42.281,27.290 42.281,26.896 L42.281,22.563 C42.281,22.168 41.986,21.833 41.594,21.784 L39.088,21.471 C38.768,21.431 38.497,21.214 38.387,20.911 C37.812,19.329 36.926,17.917 35.805,16.740 C35.722,16.681 35.652,16.608 35.596,16.526 C34.058,14.991 32.107,13.885 29.919,13.367 C29.457,13.258 29.171,12.795 29.281,12.333 C29.390,11.871 29.853,11.586 30.315,11.695 C30.955,11.846 31.583,12.046 32.194,12.289 C33.057,10.041 35.253,8.508 37.690,8.508 C37.691,8.508 37.692,8.508 37.693,8.508 L37.881,8.508 C38.143,8.508 38.391,8.628 38.554,8.834 C38.717,9.040 38.777,9.309 38.717,9.564 L37.249,15.782 C38.332,16.971 39.204,18.344 39.811,19.829 L41.808,20.079 C43.057,20.235 44.000,21.303 44.000,22.563 L44.000,26.896 C44.000,28.155 43.057,29.223 41.808,29.380 ZM33.756,13.027 C34.478,13.426 35.164,13.890 35.806,14.415 L36.770,10.331 C35.388,10.648 34.230,11.663 33.756,13.027 ZM29.906,17.172 C29.906,17.646 29.521,18.031 29.047,18.031 L17.875,18.031 C17.400,18.031 17.016,17.646 17.016,17.172 C17.016,16.697 17.400,16.313 17.875,16.313 L22.127,16.313 C21.788,15.762 21.591,15.115 21.591,14.422 C21.591,12.432 23.210,10.812 25.200,10.812 C27.191,10.812 28.810,12.432 28.810,14.422 C28.810,15.115 28.613,15.762 28.273,16.313 L29.047,16.313 C29.521,16.313 29.906,16.697 29.906,17.172 ZM25.200,12.531 C24.158,12.531 23.310,13.379 23.310,14.422 C23.310,15.464 24.158,16.313 25.200,16.313 C26.243,16.313 27.091,15.464 27.091,14.422 C27.091,13.379 26.243,12.531 25.200,12.531 ZM25.200,8.234 C24.726,8.234 24.341,7.849 24.341,7.375 L24.341,3.966 C24.341,3.492 24.726,3.107 25.200,3.107 C25.675,3.107 26.060,3.492 26.060,3.966 L26.060,7.375 C26.060,7.849 25.675,8.234 25.200,8.234 ZM25.200,1.708 C24.974,1.708 24.753,1.616 24.593,1.456 C24.433,1.296 24.341,1.075 24.341,0.848 C24.341,0.622 24.433,0.401 24.593,0.240 C24.753,0.081 24.974,-0.011 25.200,-0.011 C25.426,-0.011 25.648,0.081 25.808,0.240 C25.968,0.401 26.060,0.622 26.060,0.848 C26.060,1.074 25.968,1.296 25.808,1.456 C25.648,1.616 25.426,1.708 25.200,1.708 Z" transform="translate(0.5 1.45)" class="cls-1"/>
</svg>
