<svg xmlns="http://www.w3.org/2000/svg" xmlns:xlink="http://www.w3.org/1999/xlink" preserveAspectRatio="xMidYMid" width="31" height="31" viewBox="0 0 31 31">
  <defs>
    <style>
      .cls-1 {
        fill: #fff;
        fill-rule: evenodd;
      }
    </style>
  </defs>
  <path d="M26.000,31.000 L5.000,31.000 C2.239,31.000 -0.000,28.761 -0.000,26.000 L-0.000,5.000 C-0.000,2.239 2.239,-0.000 5.000,-0.000 L26.000,-0.000 C28.761,-0.000 31.000,2.239 31.000,5.000 L31.000,26.000 C31.000,28.761 28.761,31.000 26.000,31.000 ZM26.333,6.836 C26.333,5.640 25.360,4.667 24.164,4.667 L6.836,4.667 C5.640,4.667 4.667,5.640 4.667,6.836 L4.667,24.164 C4.667,25.360 5.640,26.333 6.836,26.333 L24.164,26.333 C25.360,26.333 26.333,25.360 26.333,24.164 L26.333,6.836 ZM23.625,24.164 L7.375,24.164 C7.053,24.164 6.836,23.947 6.836,23.625 L6.836,14.415 L9.110,14.415 C8.999,14.743 8.999,15.178 8.999,15.500 C8.999,19.076 11.924,22.001 15.500,22.001 C19.076,22.001 22.001,19.076 22.001,15.500 C22.001,15.178 22.001,14.743 21.890,14.415 L24.164,14.415 L24.164,23.625 C24.164,23.947 23.947,24.164 23.625,24.164 ZM23.625,10.083 L21.456,10.083 C21.133,10.083 20.917,9.867 20.917,9.544 L20.917,7.375 C20.917,7.053 21.133,6.836 21.456,6.836 L23.625,6.836 C23.947,6.836 24.164,7.053 24.164,7.375 L24.164,9.544 C24.164,9.867 23.947,10.083 23.625,10.083 ZM15.500,19.832 C13.114,19.832 11.168,17.886 11.168,15.500 C11.168,13.114 13.114,11.168 15.500,11.168 C17.886,11.168 19.832,13.114 19.832,15.500 C19.832,17.886 17.886,19.832 15.500,19.832 Z" class="cls-1"/>
</svg>
