<svg xmlns="http://www.w3.org/2000/svg" xmlns:xlink="http://www.w3.org/1999/xlink" preserveAspectRatio="xMidYMid" width="31" height="31" viewBox="0 0 31 31">
  <defs>
    <style>
      .cls-1 {
        fill: #fff;
        fill-rule: evenodd;
      }
    </style>
  </defs>
  <path d="M29.294,29.293 C28.158,30.430 26.788,30.999 25.188,30.999 L5.812,30.999 C4.211,30.999 2.842,30.430 1.705,29.293 C0.568,28.156 -0.001,26.787 -0.001,25.186 L-0.001,5.810 C-0.001,4.209 0.568,2.840 1.705,1.703 C2.842,0.567 4.211,-0.002 5.812,-0.002 L25.188,-0.002 C26.788,-0.002 28.158,0.567 29.294,1.703 C30.431,2.840 31.000,4.209 31.000,5.810 L31.000,25.186 C31.000,26.787 30.431,28.156 29.294,29.293 ZM11.665,1.915 L10.635,5.851 L9.566,1.915 L7.991,1.915 L8.476,3.307 C8.476,3.307 8.631,3.772 8.941,4.701 C9.411,6.086 9.721,7.149 9.868,7.889 L9.868,11.946 L11.362,11.946 L11.362,7.889 L13.179,1.915 L11.665,1.915 ZM17.195,6.900 C17.195,6.120 17.053,5.534 16.772,5.145 C16.381,4.633 15.856,4.378 15.197,4.378 C14.511,4.378 13.986,4.633 13.623,5.145 C13.340,5.534 13.200,6.120 13.200,6.900 L13.200,9.524 C13.200,10.305 13.340,10.890 13.623,11.280 C13.986,11.792 14.511,12.047 15.197,12.047 C15.856,12.047 16.381,11.792 16.772,11.280 C17.053,10.917 17.195,10.331 17.195,9.524 L17.195,6.900 ZM22.200,4.478 L20.848,4.478 L20.848,10.190 C20.553,10.607 20.270,10.815 20.001,10.815 C19.799,10.815 19.692,10.708 19.677,10.492 C19.664,10.465 19.658,10.290 19.658,9.967 L19.658,4.478 L18.305,4.478 L18.305,10.392 C18.305,10.889 18.345,11.259 18.426,11.502 C18.575,11.865 18.864,12.047 19.294,12.047 C19.779,12.047 20.296,11.744 20.848,11.138 L20.848,11.946 L22.200,11.946 L22.200,4.478 ZM26.217,15.781 C26.083,15.188 25.793,14.694 25.349,14.296 C24.905,13.900 24.394,13.667 23.815,13.601 C21.986,13.399 19.214,13.297 15.500,13.297 C11.800,13.297 9.035,13.399 7.205,13.601 C6.613,13.667 6.098,13.900 5.661,14.296 C5.224,14.694 4.938,15.189 4.804,15.781 C4.534,16.952 4.400,18.700 4.400,21.028 C4.400,23.396 4.534,25.145 4.804,26.276 C4.938,26.855 5.224,27.346 5.661,27.750 C6.098,28.153 6.606,28.388 7.184,28.456 C9.028,28.658 11.800,28.759 15.500,28.759 C19.201,28.759 21.973,28.658 23.815,28.456 C24.394,28.388 24.903,28.153 25.339,27.750 C25.777,27.346 26.063,26.855 26.197,26.276 C26.467,25.145 26.601,23.396 26.601,21.028 C26.601,18.646 26.473,16.897 26.217,15.781 ZM24.603,25.126 C24.238,25.664 23.701,25.933 22.988,25.933 C22.287,25.933 21.743,25.677 21.352,25.166 C21.071,24.803 20.929,24.224 20.929,23.430 L20.929,20.826 C20.929,20.032 21.063,19.454 21.333,19.090 C21.722,18.579 22.261,18.323 22.946,18.323 C23.634,18.323 24.159,18.579 24.521,19.090 C24.804,19.468 24.945,20.046 24.945,20.826 L24.945,22.361 L22.261,22.361 L22.261,23.672 C22.261,24.358 22.489,24.701 22.946,24.701 C23.271,24.701 23.472,24.526 23.552,24.177 C23.552,24.163 23.556,24.116 23.562,24.036 C23.570,23.955 23.573,23.843 23.573,23.702 L23.573,23.269 L24.946,23.269 L24.946,23.451 C24.946,23.840 24.933,24.129 24.905,24.318 C24.865,24.614 24.764,24.883 24.603,25.126 ZM22.262,21.250 L23.594,21.250 L23.594,20.563 C23.594,19.877 23.371,19.535 22.927,19.535 C22.483,19.535 22.262,19.877 22.262,20.563 L22.262,21.250 ZM18.670,25.933 C18.198,25.933 17.741,25.657 17.296,25.105 L17.296,25.832 L15.944,25.832 L15.944,15.882 L17.296,15.882 L17.296,19.131 C17.727,18.593 18.185,18.323 18.670,18.323 C19.221,18.323 19.577,18.606 19.737,19.171 C19.832,19.454 19.879,19.951 19.879,20.665 L19.879,23.611 C19.879,24.312 19.832,24.802 19.737,25.085 C19.577,25.650 19.221,25.933 18.670,25.933 ZM18.547,20.544 C18.547,19.870 18.353,19.535 17.962,19.535 C17.733,19.535 17.512,19.643 17.296,19.857 L17.296,24.378 C17.512,24.594 17.733,24.701 17.962,24.701 C18.353,24.701 18.547,24.372 18.547,23.713 L18.547,20.544 ZM13.442,25.024 C12.917,25.629 12.405,25.933 11.908,25.933 C11.464,25.933 11.181,25.744 11.060,25.367 C10.979,25.153 10.939,24.788 10.939,24.277 L10.939,18.424 L12.271,18.424 L12.271,23.874 C12.271,24.197 12.277,24.372 12.291,24.399 C12.305,24.601 12.405,24.701 12.594,24.701 C12.862,24.701 13.145,24.493 13.442,24.076 L13.442,18.424 L14.793,18.424 L14.793,25.831 L13.442,25.831 L13.442,25.024 ZM9.122,25.832 L7.628,25.832 L7.628,17.295 L6.055,17.295 L6.055,15.882 L10.737,15.882 L10.737,17.295 L9.122,17.295 L9.122,25.832 ZM15.197,10.815 C14.766,10.815 14.551,10.473 14.551,9.786 L14.551,6.637 C14.551,5.938 14.766,5.588 15.197,5.588 C15.627,5.588 15.843,5.938 15.843,6.637 L15.843,9.786 C15.843,10.473 15.627,10.815 15.197,10.815 Z" class="cls-1"/>
</svg>
